<svg width="242" height="98" viewBox="0 0 242 98" fill="none" xmlns="http://www.w3.org/2000/svg">
<path d="M128 67.6V78H84.64V22H126.96V32.4H97.52V44.56H123.52V54.64H97.52V67.6H128ZM180.959 18.64V78H169.039V73.04C165.946 76.7733 161.466 78.64 155.599 78.64C151.546 78.64 147.866 77.7333 144.559 75.92C141.306 74.1067 138.746 71.52 136.879 68.16C135.013 64.8 134.079 60.9067 134.079 56.48C134.079 52.0533 135.013 48.16 136.879 44.8C138.746 41.44 141.306 38.8533 144.559 37.04C147.866 35.2267 151.546 34.32 155.599 34.32C161.093 34.32 165.386 36.0533 168.479 39.52V18.64H180.959ZM157.759 68.4C160.906 68.4 163.519 67.3333 165.599 65.2C167.679 63.0133 168.719 60.1067 168.719 56.48C168.719 52.8533 167.679 49.9733 165.599 47.84C163.519 45.6533 160.906 44.56 157.759 44.56C154.559 44.56 151.919 45.6533 149.839 47.84C147.759 49.9733 146.719 52.8533 146.719 56.48C146.719 60.1067 147.759 63.0133 149.839 65.2C151.919 67.3333 154.559 68.4 157.759 68.4ZM235.87 34.96V78H224.03V72.88C222.377 74.7467 220.403 76.1867 218.11 77.2C215.817 78.16 213.337 78.64 210.67 78.64C205.017 78.64 200.537 77.0133 197.23 73.76C193.923 70.5067 192.27 65.68 192.27 59.28V34.96H204.75V57.44C204.75 64.3733 207.657 67.84 213.47 67.84C216.457 67.84 218.857 66.88 220.67 64.96C222.483 62.9867 223.39 60.08 223.39 56.24V34.96H235.87Z" fill="white"/>
<path d="M128 67.6H130V65.6H128V67.6ZM128 78V80H130V78H128ZM84.64 78H82.64V80H84.64V78ZM84.64 22V20H82.64V22H84.64ZM126.96 22H128.96V20H126.96V22ZM126.96 32.4V34.4H128.96V32.4H126.96ZM97.52 32.4V30.4H95.52V32.4H97.52ZM97.52 44.56H95.52V46.56H97.52V44.56ZM123.52 44.56H125.52V42.56H123.52V44.56ZM123.52 54.64V56.64H125.52V54.64H123.52ZM97.52 54.64V52.64H95.52V54.64H97.52ZM97.52 67.6H95.52V69.6H97.52V67.6ZM126 67.6V78H130V67.6H126ZM128 76H84.64V80H128V76ZM86.64 78V22H82.64V78H86.64ZM84.64 24H126.96V20H84.64V24ZM124.96 22V32.4H128.96V22H124.96ZM126.96 30.4H97.52V34.4H126.96V30.4ZM95.52 32.4V44.56H99.52V32.4H95.52ZM97.52 46.56H123.52V42.56H97.52V46.56ZM121.52 44.56V54.64H125.52V44.56H121.52ZM123.52 52.64H97.52V56.64H123.52V52.64ZM95.52 54.64V67.6H99.52V54.64H95.52ZM97.52 69.6H128V65.6H97.52V69.6ZM180.959 18.64H182.959V16.64H180.959V18.64ZM180.959 78V80H182.959V78H180.959ZM169.039 78H167.039V80H169.039V78ZM169.039 73.04H171.039V67.4915L167.499 71.764L169.039 73.04ZM144.559 75.92L143.586 77.667L143.598 77.6736L144.559 75.92ZM136.879 68.16L138.628 67.1887L136.879 68.16ZM136.879 44.8L138.628 45.7713L136.879 44.8ZM144.559 37.04L143.598 35.2863L143.586 35.293L144.559 37.04ZM168.479 39.52L166.987 40.8516L170.479 44.7653V39.52H168.479ZM168.479 18.64V16.64H166.479V18.64H168.479ZM165.599 65.2L167.031 66.5962L167.04 66.5874L167.048 66.5784L165.599 65.2ZM165.599 47.84L164.15 49.2184L164.159 49.2274L164.167 49.2362L165.599 47.84ZM149.839 47.84L151.271 49.2362L151.28 49.2274L151.288 49.2184L149.839 47.84ZM149.839 65.2L148.39 66.5784L148.399 66.5874L148.407 66.5962L149.839 65.2ZM178.959 18.64V78H182.959V18.64H178.959ZM180.959 76H169.039V80H180.959V76ZM171.039 78V73.04H167.039V78H171.039ZM167.499 71.764C164.866 74.9423 161.008 76.64 155.599 76.64V80.64C161.924 80.64 167.026 78.6044 170.579 74.316L167.499 71.764ZM155.599 76.64C151.856 76.64 148.511 75.8061 145.521 74.1664L143.598 77.6736C147.221 79.6606 151.236 80.64 155.599 80.64V76.64ZM145.533 74.173C142.616 72.5471 140.32 70.234 138.628 67.1887L135.131 69.1313C137.173 72.806 139.996 75.6663 143.586 77.667L145.533 74.173ZM138.628 67.1887C136.95 64.1683 136.079 60.6189 136.079 56.48H132.079C132.079 61.1945 133.076 65.4317 135.131 69.1313L138.628 67.1887ZM136.079 56.48C136.079 52.3411 136.95 48.7917 138.628 45.7713L135.131 43.8287C133.076 47.5283 132.079 51.7655 132.079 56.48H136.079ZM138.628 45.7713C140.32 42.726 142.616 40.4129 145.533 38.787L143.586 35.293C139.996 37.2938 137.173 40.154 135.131 43.8287L138.628 45.7713ZM145.521 38.7936C148.511 37.1539 151.856 36.32 155.599 36.32V32.32C151.236 32.32 147.221 33.2994 143.598 35.2864L145.521 38.7936ZM155.599 36.32C160.637 36.32 164.343 37.8883 166.987 40.8516L169.972 38.1884C166.429 34.2184 161.549 32.32 155.599 32.32V36.32ZM170.479 39.52V18.64H166.479V39.52H170.479ZM168.479 20.64H180.959V16.64H168.479V20.64ZM157.759 70.4C161.412 70.4 164.552 69.1391 167.031 66.5962L164.167 63.8038C162.487 65.5275 160.401 66.4 157.759 66.4V70.4ZM167.048 66.5784C169.551 63.9473 170.719 60.5099 170.719 56.48H166.719C166.719 59.7034 165.808 62.0793 164.15 63.8216L167.048 66.5784ZM170.719 56.48C170.719 52.4519 169.552 49.0287 167.031 46.4438L164.167 49.2362C165.807 50.918 166.719 53.2547 166.719 56.48H170.719ZM167.048 46.4616C164.573 43.8594 161.428 42.56 157.759 42.56V46.56C160.385 46.56 162.466 47.4473 164.15 49.2184L167.048 46.4616ZM157.759 42.56C154.049 42.56 150.873 43.852 148.39 46.4616L151.288 49.2184C152.966 47.4547 155.07 46.56 157.759 46.56V42.56ZM148.407 46.4438C145.887 49.0287 144.719 52.4519 144.719 56.48H148.719C148.719 53.2547 149.632 50.918 151.271 49.2362L148.407 46.4438ZM144.719 56.48C144.719 60.5099 145.887 63.9473 148.39 66.5784L151.288 63.8216C149.631 62.0793 148.719 59.7034 148.719 56.48H144.719ZM148.407 66.5962C150.894 69.1462 154.064 70.4 157.759 70.4V66.4C155.054 66.4 152.945 65.5204 151.271 63.8038L148.407 66.5962ZM235.87 34.96H237.87V32.96H235.87V34.96ZM235.87 78V80H237.87V78H235.87ZM224.03 78H222.03V80H224.03V78ZM224.03 72.88H226.03V67.6055L222.533 71.5539L224.03 72.88ZM218.11 77.2L218.882 79.0449L218.9 79.0373L218.918 79.0294L218.11 77.2ZM197.23 73.76L198.633 72.3343L197.23 73.76ZM192.27 34.96V32.96H190.27V34.96H192.27ZM204.75 34.96H206.75V32.96H204.75V34.96ZM220.67 64.96L222.124 66.3332L222.133 66.3233L222.143 66.3132L220.67 64.96ZM223.39 34.96V32.96H221.39V34.96H223.39ZM233.87 34.96V78H237.87V34.96H233.87ZM235.87 76H224.03V80H235.87V76ZM226.03 78V72.88H222.03V78H226.03ZM222.533 71.5539C221.071 73.204 219.333 74.4729 217.302 75.3706L218.918 79.0294C221.473 77.9004 223.682 76.2893 225.527 74.2061L222.533 71.5539ZM217.338 75.3551C215.306 76.2055 213.091 76.64 210.67 76.64V80.64C213.582 80.64 216.327 80.1145 218.882 79.0449L217.338 75.3551ZM210.67 76.64C205.42 76.64 201.486 75.1421 198.633 72.3343L195.827 75.1857C199.587 78.8845 204.614 80.64 210.67 80.64V76.64ZM198.633 72.3343C195.835 69.5814 194.27 65.3521 194.27 59.28H190.27C190.27 66.0079 192.012 71.4319 195.827 75.1857L198.633 72.3343ZM194.27 59.28V34.96H190.27V59.28H194.27ZM192.27 36.96H204.75V32.96H192.27V36.96ZM202.75 34.96V57.44H206.75V34.96H202.75ZM202.75 57.44C202.75 61.1375 203.518 64.2831 205.397 66.525C207.334 68.8344 210.153 69.84 213.47 69.84V65.84C210.973 65.84 209.433 65.1123 208.463 63.955C207.436 62.7302 206.75 60.6759 206.75 57.44H202.75ZM213.47 69.84C216.928 69.84 219.882 68.7075 222.124 66.3332L219.216 63.5868C217.832 65.0525 215.986 65.84 213.47 65.84V69.84ZM222.143 66.3132C224.417 63.838 225.39 60.3657 225.39 56.24H221.39C221.39 59.7943 220.549 62.1353 219.197 63.6068L222.143 66.3132ZM225.39 56.24V34.96H221.39V56.24H225.39ZM223.39 36.96H235.87V32.96H223.39V36.96Z" fill="#3F51B5"/>
<path d="M6.64 22H19.6V78H6.64V22ZM58.17 34.32C63.5033 34.32 67.7967 35.92 71.05 39.12C74.3567 42.32 76.01 47.0667 76.01 53.36V78H63.53V55.28C63.53 51.8667 62.7833 49.3333 61.29 47.68C59.7967 45.9733 57.6367 45.12 54.81 45.12C51.6633 45.12 49.1567 46.1067 47.29 48.08C45.4233 50 44.49 52.88 44.49 56.72V78H32.01V34.96H43.93V40C45.5833 38.1867 47.6367 36.8 50.09 35.84C52.5433 34.8267 55.2367 34.32 58.17 34.32Z" fill="#303F9F"/>
<path d="M6.64 22V21H5.64V22H6.64ZM19.6 22H20.6V21H19.6V22ZM19.6 78V79H20.6V78H19.6ZM6.64 78H5.64V79H6.64V78ZM6.64 23H19.6V21H6.64V23ZM18.6 22V78H20.6V22H18.6ZM19.6 77H6.64V79H19.6V77ZM7.64 78V22H5.64V78H7.64ZM71.05 39.12L70.3487 39.8329L70.3546 39.8386L71.05 39.12ZM76.01 78V79H77.01V78H76.01ZM63.53 78H62.53V79H63.53V78ZM61.29 47.68L60.5374 48.3385L60.5426 48.3444L60.5479 48.3503L61.29 47.68ZM47.29 48.08L48.0071 48.7771L48.0165 48.7672L47.29 48.08ZM44.49 78V79H45.49V78H44.49ZM32.01 78H31.01V79H32.01V78ZM32.01 34.96V33.96H31.01V34.96H32.01ZM43.93 34.96H44.93V33.96H43.93V34.96ZM43.93 40H42.93V42.581L44.669 40.6738L43.93 40ZM50.09 35.84L50.4544 36.7712L50.4631 36.7678L50.4718 36.7643L50.09 35.84ZM58.17 35.32C63.2886 35.32 67.3139 36.8478 70.3488 39.8329L71.7512 38.4071C68.2794 34.9922 63.718 33.32 58.17 33.32V35.32ZM70.3546 39.8386C73.4035 42.7892 75.01 47.2351 75.01 53.36H77.01C77.01 46.8982 75.3098 41.8508 71.7454 38.4014L70.3546 39.8386ZM75.01 53.36V78H77.01V53.36H75.01ZM76.01 77H63.53V79H76.01V77ZM64.53 78V55.28H62.53V78H64.53ZM64.53 55.28C64.53 51.7462 63.7605 48.9233 62.0321 47.0097L60.5479 48.3503C61.8062 49.7434 62.53 51.9871 62.53 55.28H64.53ZM62.0426 47.0215C60.314 45.046 57.8482 44.12 54.81 44.12V46.12C57.4251 46.12 59.2793 46.9006 60.5374 48.3385L62.0426 47.0215ZM54.81 44.12C51.436 44.12 48.6494 45.1877 46.5635 47.3928L48.0165 48.7672C49.6639 47.0256 51.8907 46.12 54.81 46.12V44.12ZM46.573 47.3829C44.4589 49.5574 43.49 52.7328 43.49 56.72H45.49C45.49 53.0272 46.3878 50.4426 48.007 48.7771L46.573 47.3829ZM43.49 56.72V78H45.49V56.72H43.49ZM44.49 77H32.01V79H44.49V77ZM33.01 78V34.96H31.01V78H33.01ZM32.01 35.96H43.93V33.96H32.01V35.96ZM42.93 34.96V40H44.93V34.96H42.93ZM44.669 40.6738C46.2114 38.9821 48.1333 37.6795 50.4544 36.7712L49.7256 34.9088C47.1401 35.9205 44.9553 37.3912 43.191 39.3262L44.669 40.6738ZM50.4718 36.7643C52.7919 35.8059 55.3539 35.32 58.17 35.32V33.32C55.1195 33.32 52.2948 33.8474 49.7082 34.9157L50.4718 36.7643Z" fill="#3F51B5"/>
</svg>
