<svg width="408" height="284" viewBox="0 0 408 284" fill="none" xmlns="http://www.w3.org/2000/svg">
<path d="M81.2913 284C126.187 284 162.583 281.235 162.583 277.823C162.583 274.412 126.187 271.646 81.2913 271.646C36.3954 271.646 0 274.412 0 277.823C0 281.235 36.3954 284 81.2913 284Z" fill="#E6E6E6"/>
<path d="M62.1377 63.0146C76.2848 56.9945 93.9053 60.8088 111.114 63.4561C111.274 60.2502 113.215 56.3486 111.182 54.112C108.711 51.3948 108.939 48.5398 110.425 45.6683C114.226 38.3255 108.78 30.5123 103.282 24.0158C102.042 22.5548 100.476 21.4069 98.7099 20.6653C96.9438 19.9236 95.0278 19.6093 93.1175 19.7476L82.9316 20.4755C80.453 20.6527 78.0876 21.5829 76.1518 23.1417C74.2161 24.7006 72.8024 26.8138 72.0999 29.1984V29.1984C69.6677 32.5078 68.3659 35.808 69.1855 39.0911C65.5425 41.5818 64.9304 44.5884 66.5675 47.9778C67.9556 50.1119 67.9408 52.1892 66.5043 54.2091C64.6178 56.7842 63.1728 59.6556 62.2287 62.7055L62.1377 63.0146Z" fill="#2F2E41"/>
<path d="M398.332 245.513H109.996C107.432 245.513 104.973 244.494 103.16 242.68C101.346 240.866 100.328 238.406 100.328 235.841C204.85 223.688 307.407 223.688 408 235.841C408 238.406 406.981 240.866 405.168 242.68C403.355 244.494 400.896 245.513 398.332 245.513Z" fill="#2F2E41"/>
<path d="M408 236.41L100.328 235.841L135.986 175.814L136.157 175.529V43.2366C136.156 41.6308 136.473 40.0408 137.087 38.5572C137.701 37.0737 138.601 35.7257 139.736 34.5903C140.871 33.4548 142.218 32.5542 143.701 31.9398C145.184 31.3253 146.773 31.0091 148.378 31.0093H358.244C359.849 31.0091 361.438 31.3253 362.921 31.9398C364.404 32.5542 365.751 33.4548 366.886 34.5903C368.021 35.7257 368.921 37.0737 369.535 38.5572C370.149 40.0408 370.465 41.6308 370.465 43.2366V176.44L408 236.41Z" fill="#3F3D56"/>
<path d="M148.1 39.5438C147.044 39.545 146.032 39.965 145.286 40.7117C144.54 41.4584 144.12 42.4707 144.119 43.5267V164.15C144.12 165.206 144.54 166.218 145.286 166.965C146.032 167.711 147.044 168.131 148.1 168.133H360.228C361.284 168.131 362.296 167.711 363.042 166.965C363.788 166.218 364.208 165.206 364.209 164.15V43.5267C364.208 42.4707 363.788 41.4584 363.042 40.7117C362.296 39.9651 361.284 39.5451 360.228 39.5438H148.1Z" fill="#FFF9C4"/>
<path d="M148.988 184.064C148.662 184.065 148.343 184.158 148.068 184.334C147.794 184.51 147.575 184.761 147.438 185.057L136.451 208.954C136.331 209.215 136.279 209.501 136.299 209.786C136.319 210.072 136.41 210.348 136.564 210.589C136.719 210.83 136.931 211.028 137.182 211.165C137.433 211.303 137.715 211.375 138.001 211.375H369.059C369.35 211.375 369.636 211.3 369.89 211.159C370.144 211.017 370.358 210.813 370.511 210.565C370.664 210.318 370.751 210.035 370.764 209.745C370.777 209.454 370.715 209.165 370.585 208.904L358.642 185.007C358.501 184.723 358.284 184.484 358.014 184.318C357.744 184.151 357.433 184.063 357.116 184.064H148.988Z" fill="#2F2E41"/>
<path d="M253.311 37.5524C254.724 37.5524 255.87 36.4061 255.87 34.992C255.87 33.578 254.724 32.4316 253.311 32.4316C251.897 32.4316 250.752 33.578 250.752 34.992C250.752 36.4061 251.897 37.5524 253.311 37.5524Z" fill="#FFF9C4"/>
<path d="M230.6 215.927C230.225 215.927 229.86 216.051 229.562 216.279C229.265 216.508 229.05 216.827 228.952 217.19L226.196 227.431C226.128 227.684 226.119 227.949 226.17 228.207C226.221 228.464 226.33 228.705 226.489 228.913C226.649 229.121 226.854 229.29 227.088 229.406C227.323 229.522 227.582 229.582 227.843 229.582H280.258C280.53 229.582 280.798 229.517 281.04 229.392C281.281 229.268 281.49 229.087 281.648 228.865C281.805 228.643 281.908 228.387 281.946 228.118C281.985 227.849 281.959 227.574 281.87 227.317L278.326 217.075C278.21 216.74 277.992 216.449 277.703 216.243C277.414 216.037 277.069 215.927 276.714 215.927H230.6Z" fill="#2F2E41"/>
<path d="M370.465 173.538V175.814H135.986L136.163 175.53V173.538H370.465Z" fill="#2F2E41"/>
<path d="M363.925 79.6567C385.911 79.6567 403.735 61.825 403.735 39.8284C403.735 17.8318 385.911 0 363.925 0C341.939 0 324.115 17.8318 324.115 39.8284C324.115 61.825 341.939 79.6567 363.925 79.6567Z" fill="#7986CB"/>
<path d="M380.417 57.1822H347.432C346.829 57.1816 346.251 56.9416 345.824 56.5149C345.398 56.0883 345.158 55.5097 345.157 54.9063V34.9921C345.158 34.3887 345.398 33.8102 345.824 33.3835C346.251 32.9568 346.829 32.7168 347.432 32.7162H380.417C381.021 32.7168 381.599 32.9568 382.025 33.3835C382.452 33.8102 382.692 34.3887 382.692 34.9921V54.9063C382.692 55.5097 382.452 56.0882 382.025 56.5149C381.599 56.9416 381.021 57.1816 380.417 57.1822ZM347.432 34.9921V54.9063H380.419L380.417 34.9921L347.432 34.9921Z" fill="#FFF9C4"/>
<path d="M374.162 34.9921H353.688V25.8885C353.688 19.2947 357.994 14.5089 363.925 14.5089C369.856 14.5089 374.162 19.2947 374.162 25.8885L374.162 34.9921ZM355.963 32.7162H371.887V25.8885C371.887 20.5284 368.613 16.7848 363.925 16.7848C359.237 16.7848 355.963 20.5285 355.963 25.8885L355.963 32.7162Z" fill="#FFF9C4"/>
<path d="M363.925 46.6561C365.181 46.6561 366.2 45.6371 366.2 44.3802C366.2 43.1232 365.181 42.1042 363.925 42.1042C362.669 42.1042 361.65 43.1232 361.65 44.3802C361.65 45.6371 362.669 46.6561 363.925 46.6561Z" fill="#FFF9C4"/>
<path d="M336.134 127.219H172.194C171.389 127.218 170.617 126.897 170.048 126.328C169.479 125.758 169.159 124.986 169.158 124.181V83.4954C169.159 82.6901 169.479 81.9181 170.048 81.3487C170.617 80.7793 171.389 80.459 172.194 80.458H336.134C336.939 80.459 337.711 80.7793 338.28 81.3487C338.849 81.9181 339.169 82.6901 339.17 83.4954V124.181C339.169 124.986 338.849 125.758 338.28 126.328C337.711 126.897 336.939 127.218 336.134 127.219V127.219ZM172.194 81.673C171.711 81.6735 171.248 81.8657 170.906 82.2073C170.565 82.549 170.373 83.0122 170.372 83.4954V124.181C170.373 124.664 170.565 125.128 170.906 125.469C171.248 125.811 171.711 126.003 172.194 126.004H336.134C336.617 126.003 337.08 125.811 337.422 125.469C337.763 125.128 337.955 124.664 337.956 124.181V83.4954C337.955 83.0122 337.763 82.549 337.422 82.2073C337.08 81.8656 336.617 81.6735 336.134 81.673L172.194 81.673Z" fill="#E6E6E6"/>
<path d="M197.667 114.65C204.497 114.65 210.033 109.11 210.033 102.277C210.033 95.4439 204.497 89.9045 197.667 89.9045C190.837 89.9045 185.3 95.4439 185.3 102.277C185.3 109.11 190.837 114.65 197.667 114.65Z" fill="#E6E6E6"/>
<path d="M226.228 94.0288C225.957 94.0284 225.689 94.0814 225.438 94.1848C225.188 94.2883 224.96 94.4401 224.768 94.6316C224.577 94.8232 224.425 95.0506 224.321 95.301C224.217 95.5514 224.164 95.8198 224.164 96.0909C224.164 96.362 224.217 96.6304 224.321 96.8808C224.425 97.1312 224.577 97.3587 224.768 97.5502C224.96 97.7417 225.188 97.8935 225.438 97.997C225.689 98.1004 225.957 98.1534 226.228 98.153H323.396C323.942 98.153 324.466 97.9357 324.853 97.549C325.24 97.1623 325.457 96.6378 325.457 96.0909C325.457 95.544 325.24 95.0195 324.853 94.6328C324.466 94.2461 323.942 94.0288 323.396 94.0288H226.228Z" fill="#E6E6E6"/>
<path d="M226.228 106.401C225.681 106.401 225.157 106.619 224.771 107.005C224.384 107.392 224.167 107.917 224.167 108.463C224.167 109.01 224.384 109.535 224.771 109.922C225.157 110.308 225.681 110.526 226.228 110.526H268.04C268.586 110.526 269.111 110.308 269.497 109.922C269.884 109.535 270.101 109.01 270.101 108.463C270.101 107.917 269.884 107.392 269.497 107.005C269.111 106.619 268.586 106.401 268.04 106.401H226.228Z" fill="#E6E6E6"/>
<path d="M135.583 107.235L105.277 123.355L104.893 109.922C114.785 108.27 124.196 105.394 132.897 100.711L136.067 92.8765C136.412 92.0228 136.974 91.2737 137.696 90.7026C138.418 90.1315 139.276 89.7581 140.186 89.6191C141.096 89.4801 142.027 89.5802 142.886 89.9096C143.746 90.239 144.505 90.7864 145.089 91.4981V91.4981C145.944 92.5393 146.372 93.8667 146.285 95.2113C146.198 96.556 145.604 97.8174 144.622 98.7399L135.583 107.235Z" fill="#FFB8B8"/>
<path d="M61.5335 200.303C61.3124 199.492 61.2654 198.643 61.3957 197.813C61.526 196.982 61.8306 196.188 62.2894 195.484L68.9467 185.262C70.5213 182.845 72.9374 181.098 75.7263 180.362C78.5151 179.626 81.4778 179.953 84.0396 181.278V181.278C81.2418 186.043 81.6318 190.223 85.0059 193.856C79.768 196.414 74.9269 199.716 70.6327 203.659C69.8488 204.193 68.9485 204.533 68.0068 204.649C67.0652 204.765 66.1094 204.654 65.2192 204.326C64.3289 203.998 63.53 203.462 62.8889 202.762C62.2478 202.062 61.783 201.219 61.5335 200.303V200.303Z" fill="#2F2E41"/>
<path d="M136.963 186.938C135.956 188.618 134.534 190.011 132.833 190.982C131.133 191.954 129.212 192.472 127.254 192.487L83.0272 192.822L81.1091 181.692L100.674 175.935L84.1781 163.27L102.208 142.161L134.956 172.698C136.87 174.483 138.114 176.871 138.479 179.463C138.844 182.055 138.309 184.694 136.963 186.938V186.938Z" fill="#2F2E41"/>
<path d="M76.1219 263.057H65.7643C56.4646 199.282 46.9984 135.328 74.9711 111.457L107.962 116.83L103.742 144.848L85.3287 165.956L76.1219 263.057Z" fill="#2F2E41"/>
<path d="M85.2268 277.504C84.416 277.725 83.5675 277.772 82.7372 277.642C81.9069 277.512 81.1136 277.207 80.4094 276.748L69.1631 275.236C66.7465 273.66 65.0009 271.243 64.265 268.453C63.529 265.663 63.8553 262.699 65.1804 260.136C69.943 262.935 74.1209 262.544 77.7515 259.168C80.3168 264.351 84.5434 264.034 88.58 268.4C89.1145 269.185 89.4539 270.085 89.57 271.027C89.6861 271.969 89.5755 272.926 89.2474 273.816C88.9194 274.707 88.3833 275.506 87.684 276.148C86.9846 276.789 86.1421 277.254 85.2268 277.504V277.504Z" fill="#2F2E41"/>
<path d="M100.674 68.8558L81.4927 64.2502C84.6783 57.7264 84.9406 50.4673 83.4107 42.7576L96.4537 42.3738C96.8624 51.9611 98.0988 60.918 100.674 68.8558Z" fill="#FFB8B8"/>
<path d="M105.945 128.386C91.982 137.905 82.1162 128.712 74.5874 114.528C75.6336 105.848 73.9397 95.4612 70.8024 84.1751C69.4071 79.1971 69.9281 73.8767 72.2623 69.2642C74.5965 64.6517 78.5744 61.0823 83.4106 59.2609V59.2609L99.9062 66.1692C113.913 77.5916 116.67 89.9643 111.415 103.014L105.945 128.386Z" fill="#7986CB"/>
<path d="M65.7642 78.4507L50.4195 86.5105L77.6563 102.63L81.4461 111.983C81.699 112.607 81.8223 113.276 81.8083 113.949C81.7943 114.623 81.6433 115.286 81.3646 115.9C81.0859 116.513 80.6853 117.063 80.1872 117.516C79.6891 117.969 79.104 118.316 78.4675 118.536V118.536C77.744 118.785 76.9726 118.864 76.2136 118.765C75.4546 118.667 74.7287 118.394 74.0928 117.968C73.4568 117.542 72.9281 116.975 72.5479 116.31C72.1678 115.645 71.9466 114.902 71.9017 114.138L71.5184 107.619L36.9008 96.1901C35.7344 95.805 34.6709 95.1595 33.7909 94.3023C32.9108 93.4451 32.2373 92.3988 31.8213 91.2427V91.2427C31.2149 89.5574 31.184 87.7185 31.7335 86.0139C32.283 84.3092 33.3819 82.8348 34.8582 81.8215L62.6952 62.7151L65.7642 78.4507Z" fill="#FFB8B8"/>
<path d="M81.1088 79.9859C74.7092 77.18 68.8898 80.2281 61.5444 82.6725L60.3936 62.3313C67.6872 58.442 74.6412 57.3934 81.1089 60.4123L81.1088 79.9859Z" fill="#7986CB"/>
<path d="M88.7643 52.4495C95.5277 52.4495 101.011 46.9641 101.011 40.1975C101.011 33.4309 95.5277 27.9456 88.7643 27.9456C82.0009 27.9456 76.5181 33.4309 76.5181 40.1975C76.5181 46.9641 82.0009 52.4495 88.7643 52.4495Z" fill="#FFB8B8"/>
<path d="M103.415 38.6517C91.29 39.8398 82.051 37.8559 76.1462 32.2071V27.658H102.386L103.415 38.6517Z" fill="#2F2E41"/>
</svg>
